<svg version="1.1" viewBox="0.0 0.0 740.5748031496063 155.70078740157481" fill="none" stroke="none" stroke-linecap="square" stroke-miterlimit="10" xmlns:xlink="http://www.w3.org/1999/xlink" xmlns="http://www.w3.org/2000/svg"><clipPath id="p.0"><path d="m0 0l740.5748 0l0 155.70079l-740.5748 0l0 -155.70079z" clip-rule="nonzero"/></clipPath><g clip-path="url(#p.0)"><path fill="#000000" fill-opacity="0.0" d="m0 0l740.5748 0l0 155.70079l-740.5748 0z" fill-rule="evenodd"/><path fill="#000000" fill-opacity="0.0" d="m0 0l896.7559 0l0 220.06299l-896.7559 0z" fill-rule="evenodd"/><path fill="#ffffff" d="m24.875 103.08l22.359375 -58.21875l8.296875 0l23.828125 58.21875l-8.765625 0l-6.796875 -17.625l-24.34375 0l-6.390625 17.625l-8.1875 0zm16.796875 -23.90625l19.75 0l-6.078125 -16.125q-2.78125 -7.34375 -4.140625 -12.0625q-1.109375 5.59375 -3.125 11.109375l-6.40625 17.078125zm40.07335 11.3125l7.078125 -1.109375q0.59375 4.25 3.3125 6.515625q2.71875 2.265625 7.59375 2.265625q4.9375 0 7.3125 -2.0q2.390625 -2.015625 2.390625 -4.71875q0 -2.421875 -2.109375 -3.8125q-1.46875 -0.953125 -7.3125 -2.421875q-7.859375 -1.984375 -10.90625 -3.421875q-3.03125 -1.453125 -4.609375 -4.015625q-1.5625 -2.5625 -1.5625 -5.65625q0 -2.828125 1.296875 -5.21875q1.296875 -2.40625 3.515625 -4.0q1.671875 -1.234375 4.546875 -2.078125q2.875 -0.859375 6.171875 -0.859375q4.96875 0 8.71875 1.4375q3.75 1.421875 5.53125 3.875q1.796875 2.4375 2.46875 6.515625l-6.984375 0.953125q-0.484375 -3.25 -2.765625 -5.078125q-2.28125 -1.828125 -6.453125 -1.828125q-4.921875 0 -7.03125 1.625q-2.09375 1.625 -2.09375 3.8125q0 1.390625 0.859375 2.5q0.875 1.15625 2.75 1.90625q1.0625 0.40625 6.3125 1.828125q7.578125 2.03125 10.578125 3.328125q3.0 1.28125 4.703125 3.75q1.71875 2.453125 1.71875 6.109375q0 3.578125 -2.09375 6.734375q-2.078125 3.15625 -6.015625 4.890625q-3.921875 1.71875 -8.890625 1.71875q-8.21875 0 -12.53125 -3.40625q-4.3125 -3.421875 -5.5 -10.140625zm40.664062 0l7.078125 -1.109375q0.59375 4.25 3.3125 6.515625q2.71875 2.265625 7.59375 2.265625q4.9375 0 7.3125 -2.0q2.390625 -2.015625 2.390625 -4.71875q0 -2.421875 -2.109375 -3.8125q-1.46875 -0.953125 -7.3125 -2.421875q-7.859375 -1.984375 -10.90625 -3.421875q-3.03125 -1.453125 -4.609375 -4.015625q-1.5625 -2.5625 -1.5625 -5.65625q0 -2.828125 1.296875 -5.21875q1.296875 -2.40625 3.515625 -4.0q1.671875 -1.234375 4.546875 -2.078125q2.875 -0.859375 6.171875 -0.859375q4.96875 0 8.71875 1.4375q3.75 1.421875 5.53125 3.875q1.796875 2.4375 2.46875 6.515625l-6.984375 0.953125q-0.484375 -3.25 -2.765625 -5.078125q-2.28125 -1.828125 -6.453125 -1.828125q-4.921875 0 -7.03125 1.625q-2.09375 1.625 -2.09375 3.8125q0 1.390625 0.859375 2.5q0.875 1.15625 2.75 1.90625q1.0625 0.40625 6.3125 1.828125q7.578125 2.03125 10.578125 3.328125q3.0 1.28125 4.703125 3.75q1.71875 2.453125 1.71875 6.109375q0 3.578125 -2.09375 6.734375q-2.078125 3.15625 -6.015625 4.890625q-3.921875 1.71875 -8.890625 1.71875q-8.21875 0 -12.53125 -3.40625q-4.3125 -3.421875 -5.5 -10.140625zm43.570312 -37.40625l0 -8.21875l7.140625 0l0 8.21875l-7.140625 0zm0 50.0l0 -42.171875l7.140625 0l0 42.171875l-7.140625 0zm16.709137 3.5l6.953125 1.03125q0.4375 3.21875 2.421875 4.6875q2.65625 1.984375 7.265625 1.984375q4.96875 0 7.65625 -1.984375q2.703125 -1.984375 3.65625 -5.5625q0.5625 -2.1875 0.515625 -9.171875q-4.671875 5.515625 -11.671875 5.515625q-8.6875 0 -13.453125 -6.265625q-4.765625 -6.28125 -4.765625 -15.0625q0 -6.03125 2.171875 -11.125q2.1875 -5.109375 6.328125 -7.890625q4.15625 -2.78125 9.765625 -2.78125q7.46875 0 12.3125 6.03125l0 -5.078125l6.59375 0l0 36.453125q0 9.84375 -2.015625 13.953125q-2.0 4.109375 -6.359375 6.484375q-4.34375 2.390625 -10.6875 2.390625q-7.546875 0 -12.203125 -3.390625q-4.640625 -3.390625 -4.484375 -10.21875zm5.921875 -25.34375q0 8.296875 3.296875 12.109375q3.296875 3.8125 8.25 3.8125q4.9375 0 8.265625 -3.78125q3.34375 -3.796875 3.34375 -11.90625q0 -7.734375 -3.4375 -11.65625q-3.4375 -3.9375 -8.28125 -3.9375q-4.765625 0 -8.109375 3.875q-3.328125 3.859375 -3.328125 11.484375zm40.62146 21.84375l0 -42.171875l6.4375 0l0 6.0q4.640625 -6.953125 13.421875 -6.953125q3.8125 0 6.9999847 1.375q3.203125 1.359375 4.78125 3.59375q1.59375 2.21875 2.234375 5.28125q0.390625 1.984375 0.390625 6.9375l0 25.9375l-7.140625 0l0 -25.65625q0 -4.359375 -0.84373474 -6.515625q-0.828125 -2.171875 -2.953125 -3.46875q-2.125 -1.296875 -4.984375 -1.296875q-4.5625 0 -7.875 2.90625q-3.3125 2.890625 -3.3125 11.0l0 23.03125l-7.15625 0zm45.23082 0l0 -42.171875l6.390625 0l0 5.921875q1.984375 -3.109375 5.28125 -4.984375q3.296875 -1.890625 7.515625 -1.890625q4.6875 0 7.671875 1.953125q3.0 1.9375 4.234375 5.4375q5.0 -7.390625 13.03125 -7.390625q6.265625 0 9.640625 3.484375q3.375 3.46875 3.375 10.6875l0 28.953125l-7.109375 0l0 -26.5625q0 -4.296875 -0.703125 -6.171875q-0.6875 -1.890625 -2.515625 -3.046875q-1.8125 -1.15625 -4.28125 -1.15625q-4.453125 0 -7.390625 2.96875q-2.9375 2.953125 -2.9375 9.46875l0 24.5l-7.140625 0l0 -27.40625q0 -4.765625 -1.75 -7.140625q-1.75 -2.390625 -5.71875 -2.390625q-3.015625 0 -5.578125 1.59375q-2.5625 1.59375 -3.71875 4.65625q-1.140625 3.046875 -1.140625 8.8125l0 21.875l-7.15625 0zm96.62198 -13.578125l7.375 0.90625q-1.734375 6.484375 -6.46875 10.0625q-4.71875 3.5625 -12.0625 3.5625q-9.265625 0 -14.6875 -5.6875q-5.40625 -5.703125 -5.40625 -16.0q0 -10.640625 5.46875 -16.515625q5.484375 -5.875 14.21875 -5.875q8.46875 0 13.828125 5.765625q5.359375 5.75 5.359375 16.1875q0 0.640625 -0.046875 1.90625l-31.453125 0q0.40625 6.953125 3.9375 10.65625q3.53125 3.6875 8.8125 3.6875q3.9375 0 6.71875 -2.0625q2.78125 -2.0625 4.40625 -6.59375zm-23.46875 -11.5625l23.546875 0q-0.484375 -5.3125 -2.703125 -7.984375q-3.421875 -4.125 -8.859375 -4.125q-4.921875 0 -8.28125 3.296875q-3.34375 3.296875 -3.703125 8.8125zm39.824585 25.140625l0 -42.171875l6.4375 0l0 6.0q4.640625 -6.953125 13.421875 -6.953125q3.8125 0 7.0 1.375q3.203125 1.359375 4.78125 3.59375q1.59375 2.21875 2.234375 5.28125q0.390625 1.984375 0.390625 6.9375l0 25.9375l-7.140625 0l0 -25.65625q0 -4.359375 -0.84375 -6.515625q-0.828125 -2.171875 -2.953125 -3.46875q-2.125 -1.296875 -4.984375 -1.296875q-4.5625 0 -7.875 2.90625q-3.3125 2.890625 -3.3125 11.0l0 23.03125l-7.15625 0zm60.84021 -6.390625l1.03125 6.3125q-3.015625 0.640625 -5.40625 0.640625q-3.890625 0 -6.03125 -1.234375q-2.140625 -1.234375 -3.015625 -3.234375q-0.875 -2.015625 -0.875 -8.4375l0 -24.265625l-5.25 0l0 -5.5625l5.25 0l0 -10.4375l7.109375 -4.296875l0 14.734375l7.1875 0l0 5.5625l-7.1875 0l0 24.65625q0 3.0625 0.375 3.9375q0.375 0.875 1.21875 1.390625q0.859375 0.515625 2.453125 0.515625q1.1875 0 3.140625 -0.28125zm7.5799255 6.390625l0 -58.21875l7.703125 0l0 51.34375l28.671875 0l0 6.875l-36.375 0zm41.980835 -21.09375q0 -11.703125 6.515625 -17.34375q5.4375 -4.6875 13.25 -4.6875q8.703125 0 14.21875 5.703125q5.53125 5.6875 5.53125 15.734375q0 8.140625 -2.453125 12.8125q-2.4375 4.671875 -7.109375 7.25q-4.65625 2.578125 -10.1875 2.578125q-8.84375 0 -14.3125 -5.671875q-5.453125 -5.6875 -5.453125 -16.375zm7.34375 0q0 8.109375 3.53125 12.140625q3.53125 4.03125 8.890625 4.03125q5.328125 0 8.859375 -4.046875q3.53125 -4.0625 3.53125 -12.359375q0 -7.8125 -3.546875 -11.84375q-3.546875 -4.03125 -8.84375 -4.03125q-5.359375 0 -8.890625 4.015625q-3.53125 4.0 -3.53125 12.09375zm39.230835 24.59375l6.953125 1.03125q0.4375 3.21875 2.421875 4.6875q2.65625 1.984375 7.265625 1.984375q4.96875 0 7.65625 -1.984375q2.703125 -1.984375 3.65625 -5.5625q0.5625 -2.1875 0.515625 -9.171875q-4.671875 5.515625 -11.671875 5.515625q-8.6875 0 -13.453125 -6.265625q-4.765625 -6.28125 -4.765625 -15.0625q0 -6.03125 2.171875 -11.125q2.1875 -5.109375 6.328125 -7.890625q4.15625 -2.78125 9.765625 -2.78125q7.46875 0 12.3125 6.03125l0 -5.078125l6.59375 0l0 36.453125q0 9.84375 -2.015625 13.953125q-2.0 4.109375 -6.359375 6.484375q-4.34375 2.390625 -10.6875 2.390625q-7.546875 0 -12.203125 -3.390625q-4.640625 -3.390625 -4.484375 -10.21875zm5.921875 -25.34375q0 8.296875 3.296875 12.109375q3.296875 3.8125 8.25 3.8125q4.9375 0 8.265625 -3.78125q3.34375 -3.796875 3.34375 -11.90625q0 -7.734375 -3.4375 -11.65625q-3.4375 -3.9375 -8.28125 -3.9375q-4.765625 0 -8.109375 3.875q-3.328125 3.859375 -3.328125 11.484375zm39.30896 25.34375l6.953125 1.03125q0.4375 3.21875 2.421875 4.6875q2.65625 1.984375 7.265625 1.984375q4.96875 0 7.65625 -1.984375q2.703125 -1.984375 3.65625 -5.5625q0.5625 -2.1875 0.515625 -9.171875q-4.671875 5.515625 -11.671875 5.515625q-8.6875 0 -13.453125 -6.265625q-4.765625 -6.28125 -4.765625 -15.0625q0 -6.03125 2.171875 -11.125q2.1875 -5.109375 6.328125 -7.890625q4.15625 -2.78125 9.765625 -2.78125q7.46875 0 12.3125 6.03125l0 -5.078125l6.59375 0l0 36.453125q0 9.84375 -2.015625 13.953125q-2.0 4.109375 -6.359375 6.484375q-4.34375 2.390625 -10.6875 2.390625q-7.546875 0 -12.203125 -3.390625q-4.640625 -3.390625 -4.484375 -10.21875zm5.921875 -25.34375q0 8.296875 3.296875 12.109375q3.296875 3.8125 8.25 3.8125q4.9375 0 8.265625 -3.78125q3.34375 -3.796875 3.34375 -11.90625q0 -7.734375 -3.4375 -11.65625q-3.4375 -3.9375 -8.28125 -3.9375q-4.765625 0 -8.109375 3.875q-3.328125 3.859375 -3.328125 11.484375zm69.49646 8.265625l7.375 0.90625q-1.734375 6.484375 -6.46875 10.0625q-4.71875 3.5625 -12.0625 3.5625q-9.265625 0 -14.6875 -5.6875q-5.40625 -5.703125 -5.40625 -16.0q0 -10.640625 5.46875 -16.515625q5.484375 -5.875 14.21875 -5.875q8.46875 0 13.828125 5.765625q5.359375 5.75 5.359375 16.1875q0 0.640625 -0.046875 1.90625l-31.453125 0q0.40625 6.953125 3.9375 10.65625q3.53125 3.6875 8.8125 3.6875q3.9375 0 6.71875 -2.0625q2.78125 -2.0625 4.40625 -6.59375zm-23.46875 -11.5625l23.546875 0q-0.484375 -5.3125 -2.703125 -7.984375q-3.421875 -4.125 -8.859375 -4.125q-4.921875 0 -8.28125 3.296875q-3.34375 3.296875 -3.703125 8.8125zm39.74646 25.140625l0 -42.171875l6.4375 0l0 6.390625q2.453125 -4.484375 4.53125 -5.90625q2.09375 -1.4375 4.59375 -1.4375q3.625 0 7.34375 2.296875l-2.453125 6.640625q-2.625 -1.546875 -5.25 -1.546875q-2.34375 0 -4.203125 1.40625q-1.859375 1.40625 -2.65625 3.90625q-1.203125 3.8125 -1.203125 8.34375l0 22.078125l-7.140625 0z" fill-rule="nonzero"/></g></svg>